# xmcd
#
# Track frame offsets:
#	150
#	23358
#	46881
#	70481
#	89504
#	114926
#	138908
#	144150
#	169484
#	188617
#	202196
#	216983
#	229606
#	254421
#	270652
#	293786
#	310883
#	329716
#
# Disc length: 4454 seconds
#
# Revision: 0
# Processed by: cddbd v1.5.1PL2 Copyright (c) Steve Scherf et al.
# Submitted via: EasyCDDAExtractor 9.0.0.1
#
DISCID=0f116412
DTITLE=Eric Clapton - Derek And Hari Meet Michael Ellis
DYEAR=1970
DGENRE=Blues
TTITLE0=Poor Elijah
TTITLE1=I Don't Know Why
TTITLE2=Where's There's A Will There's A Way
TTITLE3=My Baby Specializes
TTITLE4=I Don't Want To Discuss It
TTITLE5=That's What My Baby Is For
TTITLE6=Coming Home
TTITLE7=Can't Find My Way Home
TTITLE8=Exchange And Mart
TTITLE9=Spending All My Days
TTITLE10=Change Of Address
TTITLE11=Sleeping On The Ground
TTITLE12=Presence Of The Lord
TTITLE13=Lonesome And A Long Way From Home
TTITLE14=I Don't Know Why - 2
TTITLE15=It's Too Late
TTITLE16=Sleepy-Time-Time
TTITLE17=I'm So Glad
EXTD=
EXTT0=
EXTT1=
EXTT2=
EXTT3=
EXTT4=
EXTT5=
EXTT6=
EXTT7=
EXTT8=
EXTT9=
EXTT10=
EXTT11=
EXTT12=
EXTT13=
EXTT14=
EXTT15=
EXTT16=
EXTT17=
PLAYORDER=
